<?xml version="1.0" encoding="utf-8"?>
<!-- Generator: Adobe Illustrator 22.1.0, SVG Export Plug-In . SVG Version: 6.00 Build 0)  -->
<svg version="1.1" id="Layer_1" xmlns="http://www.w3.org/2000/svg" xmlns:xlink="http://www.w3.org/1999/xlink" x="0px" y="0px"
	 viewBox="0 0 1000 400" style="enable-background:new 0 0 1000 400;" xml:space="preserve">
<style type="text/css">
	.st0{fill:#E6E6E6;}
	.st1{fill:#70EACA;}
	.st2{font-family:'MrEavesModOT-Light';}
	.st3{font-size:188.3271px;}
</style>
<g>
	<line class="st0" x1="39.6" y1="126.6" x2="142.2" y2="65.7"/>
	<g>
		<path class="st0" d="M40.7,128.5c29.9-17.8,59.9-35.5,89.8-53.3c4.3-2.5,8.5-5.1,12.8-7.6c2.5-1.5,0.2-5.4-2.3-3.9
			c-29.9,17.8-59.9,35.5-89.8,53.3c-4.3,2.5-8.5,5.1-12.8,7.6C35.9,126.1,38.2,130,40.7,128.5L40.7,128.5z"/>
	</g>
</g>
<g>
	<g>
		<path class="st1" d="M31,132.9c31.6,18.4,63.2,36.8,94.7,55.2c4.6,2.7,9.1,5.3,13.7,8c2.5,1.5,4.8-2.4,2.3-3.9
			c-31.6-18.4-63.2-36.8-94.7-55.2c-4.6-2.7-9.1-5.3-13.7-8C30.7,127.6,28.5,131.4,31,132.9L31,132.9z"/>
	</g>
</g>
<g>
	<line class="st0" x1="41" y1="263.9" x2="142.2" y2="204.7"/>
	<g>
		<path class="st0" d="M42.1,265.8c29.5-17.2,59-34.5,88.5-51.7c4.2-2.5,8.5-4.9,12.7-7.4c2.5-1.5,0.2-5.4-2.3-3.9
			c-29.5,17.2-59,34.5-88.5,51.7c-4.2,2.5-8.5,4.9-12.7,7.4C37.4,263.4,39.6,267.3,42.1,265.8L42.1,265.8z"/>
	</g>
</g>
<g>
	<line class="st0" x1="257" y1="265.2" x2="153.8" y2="203.4"/>
	<g>
		<path class="st0" d="M258.1,263.2c-30.1-18-60.2-36-90.3-54c-4.3-2.6-8.6-5.1-12.9-7.7c-2.5-1.5-4.8,2.4-2.3,3.9
			c30.1,18,60.2,36,90.3,54c4.3,2.6,8.6,5.1,12.9,7.7C258.3,268.6,260.6,264.7,258.1,263.2L258.1,263.2z"/>
	</g>
</g>
<g>
	<line class="st0" x1="256.5" y1="134.4" x2="154.8" y2="196.1"/>
	<g>
		<path class="st0" d="M255.4,132.4c-29.7,18-59.4,36-89.1,54c-4.2,2.6-8.5,5.1-12.7,7.7c-2.5,1.5-0.2,5.4,2.3,3.9
			c29.7-18,59.4-36,89.1-54c4.2-2.6,8.5-5.1,12.7-7.7C260.1,134.8,257.9,130.9,255.4,132.4L255.4,132.4z"/>
	</g>
</g>
<g>
	<g>
		<path class="st1" d="M29.8,131c0,40.4,0,80.7,0,121.1c0,5.8,0,11.5,0,17.3c0,2.9,4.5,2.9,4.5,0c0-40.4,0-80.7,0-121.1
			c0-5.8,0-11.5,0-17.3C34.3,128.1,29.8,128.1,29.8,131L29.8,131z"/>
	</g>
</g>
<g>
	<g>
		<path class="st1" d="M31,271.3c31.8,18.7,63.5,37.4,95.3,56.2c4.5,2.7,9.1,5.3,13.6,8c2.5,1.5,4.8-2.4,2.3-3.9
			c-31.8-18.7-63.5-37.4-95.3-56.2c-4.5-2.7-9.1-5.3-13.6-8C30.7,266,28.5,269.9,31,271.3L31,271.3z"/>
	</g>
</g>
<g>
	<line class="st0" x1="263" y1="261.3" x2="263" y2="137.8"/>
	<g>
		<path class="st0" d="M265.2,261.3c0-36,0-72.1,0-108.1c0-5.1,0-10.2,0-15.4c0-2.9-4.5-2.9-4.5,0c0,36,0,72.1,0,108.1
			c0,5.1,0,10.2,0,15.4C260.7,264.2,265.2,264.2,265.2,261.3L265.2,261.3z"/>
	</g>
</g>
<g>
	<line class="st0" x1="257.4" y1="272.1" x2="152.9" y2="335.1"/>
	<g>
		<path class="st0" d="M256.3,270.1c-30.5,18.4-61,36.8-91.6,55.2c-4.3,2.6-8.6,5.2-13,7.8c-2.5,1.5-0.2,5.4,2.3,3.9
			c30.5-18.4,61-36.8,91.6-55.2c4.3-2.6,8.6-5.2,13-7.8C261.1,272.5,258.8,268.6,256.3,270.1L256.3,270.1z"/>
	</g>
</g>
<g>
	<line class="st0" x1="256.1" y1="126.6" x2="153.4" y2="64.4"/>
	<g>
		<path class="st0" d="M257.2,124.6c-29.9-18.1-59.9-36.3-89.8-54.4c-4.3-2.6-8.6-5.2-12.8-7.8c-2.5-1.5-4.7,2.4-2.3,3.9
			c29.9,18.1,59.9,36.3,89.8,54.4c4.3,2.6,8.6,5.2,12.8,7.8C257.4,130,259.7,126.1,257.2,124.6L257.2,124.6z"/>
	</g>
</g>
<g>
	<line class="st0" x1="148.2" y1="69.2" x2="148.2" y2="192.2"/>
	<g>
		<path class="st0" d="M145.9,69.2c0,35.9,0,71.7,0,107.6c0,5.1,0,10.3,0,15.4c0,2.9,4.5,2.9,4.5,0c0-35.9,0-71.7,0-107.6
			c0-5.1,0-10.3,0-15.4C150.4,66.3,145.9,66.3,145.9,69.2L145.9,69.2z"/>
	</g>
</g>
<g>
	<line class="st0" x1="148.2" y1="207.3" x2="148" y2="326.7"/>
	<g>
		<path class="st0" d="M145.9,207.3c-0.1,34.8-0.1,69.5-0.2,104.3c0,5,0,10,0,15.1c0,2.9,4.5,2.9,4.5,0c0.1-34.8,0.1-69.5,0.2-104.3
			c0-5,0-10,0-15.1C150.4,204.4,145.9,204.4,145.9,207.3L145.9,207.3z"/>
	</g>
</g>
<text transform="matrix(1 0 0 1 285.4458 260.7588)" class="st0 st2 st3">KOR</text>
<text transform="matrix(1 0 0 1 637.4561 260.6631)" class="st0 st2 st3">DOR</text>
<g>
	<line class="st0" x1="642" y1="119" x2="967.4" y2="119.1"/>
	<g>
		<path class="st0" d="M642,122c36.7,0,73.4,0,110.1,0c58.4,0,116.9,0,175.3,0c13.3,0,26.6,0,39.9,0c3.9,0,3.9-6,0-6
			c-36.7,0-73.4,0-110.1,0c-58.4,0-116.9,0-175.3,0c-13.3,0-26.6,0-39.9,0C638.2,116,638.2,122,642,122L642,122z"/>
	</g>
</g>
<g>
	<g>
		<path class="st1" d="M617.2,258.6c0-31.8,0-63.5,0-95.3c0-4.5,0-8.9,0-13.4c0-3.9-6-3.9-6,0c0,31.8,0,63.5,0,95.3
			c0,4.5,0,8.9,0,13.4C611.2,262.5,617.2,262.5,617.2,258.6L617.2,258.6z"/>
	</g>
</g>
<g>
	<line class="st0" x1="642" y1="295.6" x2="967.4" y2="295.7"/>
	<g>
		<path class="st0" d="M642,298.6c36.7,0,73.4,0,110.1,0c58.4,0,116.9,0,175.3,0c13.3,0,26.6,0,39.9,0c3.9,0,3.9-6,0-6
			c-36.7,0-73.4,0-110.1,0c-58.4,0-116.9,0-175.3,0c-13.3,0-26.6,0-39.9,0C638.2,292.6,638.2,298.6,642,298.6L642,298.6z"/>
	</g>
</g>
</svg>
