<?xml version="1.0" encoding="utf-8"?>
<!-- Generator: Adobe Illustrator 22.1.0, SVG Export Plug-In . SVG Version: 6.00 Build 0)  -->
<svg version="1.1" id="Layer_1" xmlns="http://www.w3.org/2000/svg" xmlns:xlink="http://www.w3.org/1999/xlink" x="0px" y="0px"
	 viewBox="0 0 1000 1000" style="enable-background:new 0 0 1000 1000;" xml:space="preserve">
<style type="text/css">
	.st0{fill:#F2F2F2;}
	.st1{fill:#70EACA;}
</style>
<g>
	<g>
		<path class="st0" d="M132.4,254.3c11.7-6.9,23.4-13.9,35.1-20.8c28.1-16.6,56.1-33.3,84.2-49.9c33.8-20,67.6-40.1,101.3-60.1
			c29.3-17.4,58.6-34.8,88-52.2c14.2-8.4,28.8-16.3,42.6-25.3c0.2-0.1,0.4-0.2,0.6-0.4c6.6-3.9,0.6-14.3-6.1-10.4
			c-11.7,6.9-23.4,13.9-35.1,20.8C415,72.7,386.9,89.3,358.9,106c-33.8,20-67.6,40.1-101.3,60.1c-29.3,17.4-58.6,34.8-88,52.2
			c-14.2,8.4-28.8,16.3-42.6,25.3c-0.2,0.1-0.4,0.2-0.6,0.4C119.7,247.9,125.7,258.3,132.4,254.3L132.4,254.3z"/>
	</g>
</g>
<g>
	<g>
		<path class="st1" d="M100.7,269.3c12.3,7.2,24.6,14.3,36.9,21.5c29.6,17.2,59.1,34.4,88.7,51.7c35.8,20.8,71.5,41.7,107.3,62.5
			c31.1,18.1,62.1,36.2,93.2,54.3c15,8.7,29.7,18.2,45.1,26.3c0.2,0.1,0.4,0.2,0.6,0.4c6.7,3.9,12.7-6.5,6.1-10.4
			c-12.3-7.2-24.6-14.3-36.9-21.5c-29.6-17.2-59.1-34.4-88.7-51.7c-35.8-20.8-71.5-41.7-107.3-62.5c-31.1-18.1-62.1-36.2-93.2-54.3
			c-15-8.7-29.7-18.2-45.1-26.3c-0.2-0.1-0.4-0.2-0.6-0.4C100,255.1,94,265.4,100.7,269.3L100.7,269.3z"/>
	</g>
</g>
<g>
	<g>
		<path class="st0" d="M137.2,725c11.6-6.8,23.1-13.5,34.7-20.3c27.6-16.1,55.2-32.2,82.8-48.4c33.4-19.5,66.7-39,100.1-58.5
			c29-16.9,57.9-33.8,86.9-50.8c14-8.2,28.4-15.8,42-24.5c0.2-0.1,0.4-0.2,0.6-0.3c6.7-3.9,0.6-14.3-6.1-10.4
			c-11.6,6.8-23.1,13.5-34.7,20.3c-27.6,16.1-55.2,32.2-82.8,48.4c-33.4,19.5-66.7,39-100.1,58.5c-29,16.9-57.9,33.8-86.9,50.8
			c-14,8.2-28.4,15.8-42,24.5c-0.2,0.1-0.4,0.2-0.6,0.3C124.5,718.5,130.5,728.9,137.2,725L137.2,725z"/>
	</g>
</g>
<g>
	<g>
		<path class="st0" d="M877.8,719c-11.8-7-23.5-14.1-35.3-21.1c-28.1-16.8-56.2-33.6-84.2-50.4c-34.1-20.4-68.2-40.8-102.3-61.2
			c-29.4-17.6-58.8-35.2-88.1-52.7c-14.3-8.6-28.4-17.9-43.1-25.8c-0.2-0.1-0.4-0.2-0.6-0.4c-6.6-4-12.7,6.4-6.1,10.4
			c11.8,7,23.5,14.1,35.3,21.1c28.1,16.8,56.2,33.6,84.2,50.4c34.1,20.4,68.2,40.8,102.3,61.2c29.4,17.6,58.8,35.2,88.1,52.7
			c14.3,8.6,28.4,17.9,43.1,25.8c0.2,0.1,0.4,0.2,0.6,0.4C878.4,733.4,884.4,723,877.8,719L877.8,719z"/>
	</g>
</g>
<g>
	<g>
		<path class="st0" d="M870.2,270.6c-11.6,7.1-23.2,14.1-34.9,21.2c-27.8,16.8-55.5,33.7-83.3,50.5c-33.6,20.4-67.1,40.7-100.7,61.1
			c-29,17.6-58,35.2-87,52.8c-14.1,8.6-28.6,16.7-42.4,25.7c-0.2,0.1-0.4,0.2-0.6,0.4c-6.6,4-0.6,14.4,6.1,10.4
			c11.6-7.1,23.2-14.1,34.9-21.2c27.8-16.8,55.5-33.7,83.3-50.5c33.6-20.4,67.1-40.7,100.7-61.1c29-17.6,58-35.2,87-52.8
			c14.1-8.6,28.6-16.7,42.4-25.7c0.2-0.1,0.4-0.2,0.6-0.4C882.8,277,876.8,266.6,870.2,270.6L870.2,270.6z"/>
	</g>
</g>
<g>
	<g>
		<path class="st1" d="M97.7,264.1c0,15.7,0,31.5,0,47.2c0,37.8,0,75.6,0,113.4c0,45.7,0,91.4,0,137.1c0,39.5,0,79,0,118.5
			c0,19.1-0.8,38.4,0,57.6c0,0.3,0,0.5,0,0.8c0,7.7,12,7.7,12,0c0-15.7,0-31.5,0-47.2c0-37.8,0-75.6,0-113.4c0-45.7,0-91.4,0-137.1
			c0-39.5,0-79,0-118.5c0-19.1,0.8-38.4,0-57.6c0-0.3,0-0.5,0-0.8C109.7,256.4,97.7,256.4,97.7,264.1L97.7,264.1z"/>
	</g>
</g>
<g>
	<g>
		<path class="st1" d="M100.7,743.9c12.4,7.3,24.7,14.6,37.1,21.9c29.7,17.5,59.4,35,89.1,52.5c35.9,21.2,71.9,42.4,107.8,63.5
			c31.1,18.3,62.2,36.6,93.3,55c15.1,8.9,30,18.5,45.5,26.8c0.2,0.1,0.4,0.3,0.7,0.4c6.7,3.9,12.7-6.4,6.1-10.4
			c-12.4-7.3-24.7-14.6-37.1-21.9c-29.7-17.5-59.4-35-89.1-52.5c-35.9-21.2-71.9-42.4-107.8-63.5c-31.1-18.3-62.2-36.6-93.3-55
			c-15.1-8.9-30-18.5-45.5-26.8c-0.2-0.1-0.4-0.3-0.7-0.4C100.1,729.6,94,740,100.7,743.9L100.7,743.9z"/>
	</g>
</g>
<g>
	<g>
		<path class="st0" d="M901.4,710.9c0-14,0-28.1,0-42.1c0-33.7,0-67.4,0-101.1c0-40.8,0-81.6,0-122.3c0-35.2,0-70.5,0-105.7
			c0-17,0.7-34.2,0-51.2c0-0.2,0-0.5,0-0.7c0-7.7-12-7.7-12,0c0,14,0,28.1,0,42.1c0,33.7,0,67.4,0,101.1c0,40.8,0,81.6,0,122.3
			c0,35.2,0,70.5,0,105.7c0,17-0.7,34.2,0,51.2c0,0.2,0,0.5,0,0.7C889.4,718.6,901.4,718.6,901.4,710.9L901.4,710.9z"/>
	</g>
</g>
<g>
	<g>
		<path class="st0" d="M873.3,742.7c-11.9,7.2-23.7,14.3-35.6,21.5c-28.5,17.2-57,34.4-85.5,51.5c-34.6,20.9-69.3,41.8-103.9,62.6
			c-29.7,17.9-59.4,35.8-89.1,53.7c-14.5,8.8-29.5,17-43.7,26.4c-0.2,0.1-0.4,0.2-0.6,0.4c-6.6,4-0.6,14.4,6.1,10.4
			c11.9-7.2,23.7-14.3,35.6-21.5c28.5-17.2,57-34.4,85.5-51.5c34.6-20.9,69.3-41.8,103.9-62.6c29.7-17.9,59.4-35.8,89.1-53.7
			c14.5-8.8,29.5-17,43.7-26.4c0.2-0.1,0.4-0.2,0.6-0.4C886,749.1,880,738.7,873.3,742.7L873.3,742.7z"/>
	</g>
</g>
<g>
	<g>
		<path class="st0" d="M874.6,243.9c-11.6-7-23.3-14.1-34.9-21.1c-28-16.9-55.9-33.9-83.9-50.8c-34-20.6-68-41.2-102-61.8
			c-29.3-17.7-58.6-35.4-87.8-53.2c-14.2-8.6-28.2-17.9-42.7-25.9c-0.2-0.1-0.4-0.2-0.6-0.4c-6.6-4-12.7,6.4-6.1,10.4
			c11.6,7,23.3,14.1,34.9,21.1c28,16.9,55.9,33.9,83.9,50.8c34,20.6,68,41.2,102,61.8c29.3,17.7,58.6,35.4,87.8,53.2
			c14.2,8.6,28.2,17.9,42.7,25.9c0.2,0.1,0.4,0.2,0.6,0.4C875.2,258.3,881.2,247.9,874.6,243.9L874.6,243.9z"/>
	</g>
</g>
<g>
	<g>
		<path class="st0" d="M495.7,52.3c0,14,0,27.9,0,41.9c0,33.6,0,67.1,0,100.7c0,40.6,0,81.2,0,121.8c0,35.1,0,70.2,0,105.4
			c0,17.1-0.7,34.3,0,51.3c0,0.2,0,0.5,0,0.7c0,7.7,12,7.7,12,0c0-14,0-27.9,0-41.9c0-33.6,0-67.1,0-100.7c0-40.6,0-81.2,0-121.8
			c0-35.1,0-70.2,0-105.4c0-17.1,0.7-34.3,0-51.3c0-0.2,0-0.5,0-0.7C507.7,44.6,495.7,44.5,495.7,52.3L495.7,52.3z"/>
	</g>
</g>
<g>
	<g>
		<path class="st0" d="M495.7,525.9c0,13.6,0,27.2-0.1,40.8c-0.1,32.6-0.1,65.3-0.2,97.9c-0.1,39.3-0.1,78.6-0.2,117.9
			c-0.1,34.1-0.1,68.2-0.2,102.3c0,16.5-0.8,33.1-0.1,49.6c0,0.2,0,0.5,0,0.7c0,7.7,12,7.7,12,0c0-13.6,0-27.2,0.1-40.8
			c0.1-32.6,0.1-65.3,0.2-97.9c0.1-39.3,0.1-78.6,0.2-117.9c0.1-34.1,0.1-68.2,0.2-102.3c0-16.5,0.8-33.1,0.1-49.6
			c0-0.2,0-0.5,0-0.7C507.7,518.2,495.7,518.2,495.7,525.9L495.7,525.9z"/>
	</g>
</g>
</svg>
