<?xml version="1.0" encoding="iso-8859-1"?>
<!-- Generator: Adobe Illustrator 19.0.0, SVG Export Plug-In . SVG Version: 6.00 Build 0)  -->
<svg version="1.1" id="Layer_1" xmlns="http://www.w3.org/2000/svg" xmlns:xlink="http://www.w3.org/1999/xlink" x="0px" y="0px"
	 viewBox="0 0 499.2 499.2" style="enable-background:new 0 0 499.2 499.2;" xml:space="preserve">
<path style="fill:#FF7900;" d="M180.8,476c15.2,11.2,43.2,23.2,68.8,23.2S304,488,318.4,476H180.8z"/>
<path id="SVGCleanerId_0" style="fill:#FFB000;" d="M449.6,420h-19.2c0-8-1.6-4.8-1.6-6.4c0-72-51.2,0.8-67.2-172v-31.2
	c0-63.2-48.8-115.2-112-115.2s-112,51.2-112,115.2v31.2c-16,173.6-67.2,100-67.2,172.8c0,1.6-1.6-1.6-1.6,6.4H49.6
	c-9.6,0-16,4-16,13.6v12c0,8.8,6.4,13.6,16,13.6h400c9.6,0,16-4.8,16-14.4v-12C465.6,424,459.2,420,449.6,420z"/>
<g>
	<path id="SVGCleanerId_0_1_" style="fill:#FFB000;" d="M449.6,420h-19.2c0-8-1.6-4.8-1.6-6.4c0-72-51.2,0.8-67.2-172v-31.2
		c0-63.2-48.8-115.2-112-115.2s-112,51.2-112,115.2v31.2c-16,173.6-67.2,100-67.2,172.8c0,1.6-1.6-1.6-1.6,6.4H49.6
		c-9.6,0-16,4-16,13.6v12c0,8.8,6.4,13.6,16,13.6h400c9.6,0,16-4.8,16-14.4v-12C465.6,424,459.2,420,449.6,420z"/>
</g>
<path style="fill:#FFB000;" d="M249.6,118.4c-32.8,0-59.2-26.4-59.2-59.2S216.8,0,249.6,0s59.2,26.4,59.2,59.2
	S282.4,118.4,249.6,118.4z M249.6,24c-19.2,0-35.2,16-35.2,35.2s16,35.2,35.2,35.2s35.2-16,35.2-35.2S268.8,24,249.6,24z"/>
<g>
	<path style="fill:#FFC200;" d="M137.6,241.6c-16,134.4-44.8,119.2-60,140c116-6.4,202.4-92.8,207.2-198.4c1.6-29.6,1.6-57.6,0-83.2
		c-11.2-3.2-21.6-5.6-33.6-5.6c-63.2,0-113.6,51.2-113.6,115.2V241.6z"/>
	<path style="fill:#FFC200;" d="M307.2,47.2C301.6,20,277.6,0,249.6,0c-32.8,0-59.2,26.4-59.2,59.2c0,24.8,15.2,45.6,36,54.4
		C264.8,109.6,296,83.2,307.2,47.2z M249.6,24c19.2,0,35.2,16,35.2,35.2s-16,35.2-35.2,35.2s-35.2-16-35.2-35.2S230.4,24,249.6,24z"
		/>
</g>
<path style="fill:#C10A43;" d="M465.6,386.4c0,40.8-32.8,73.6-73.6,73.6h-60.8c-40.8,0-73.6-32.8-73.6-73.6v-60.8
	c0-40.8,32.8-73.6,73.6-73.6H392c40.8,0,73.6,32.8,73.6,73.6V386.4z"/>
<path style="fill:#A3003B;" d="M257.6,325.6c0-40.8,32.8-73.6,73.6-73.6h62.4c40.8,0,72,36,72,76.8v58.4c0,40.8-32.8,73.6-73.6,73.6
	"/>
<path style="fill:#FFFFFF;" d="M381.6,345.6c-6.4-4-15.2-4-23.2-4l1.6-9.6h30.4c3.2,0,3.2-6.4,3.2-9.6V312c0-3.2,0-4-3.2-4h-44.8
	c-3.2,0-5.6,1.6-5.6,4l-5.6,44c0,1.6,0.8,3.2,2.4,4.8c1.6,1.6,3.2,1.6,5.6,1.6c3.2,0,6.4-0.8,11.2-0.8c13.6,0,20.8,4.8,20.8,14.4
	s-8,14.4-16,14.4c-7.2,0-14.4-2.4-16.8-4c-1.6-0.8-3.2-0.8-4.8-0.8c-1.6,0.8-3.2,1.6-3.2,4l-3.2,9.6c-0.8,2.4,0,5.6,2.4,7.2
	c4.8,3.2,14.4,6.4,26.4,6.4c23.2,0,40.8-16,40.8-37.6C398.4,362.4,392,351.2,381.6,345.6z"/>
<g>
</g>
<g>
</g>
<g>
</g>
<g>
</g>
<g>
</g>
<g>
</g>
<g>
</g>
<g>
</g>
<g>
</g>
<g>
</g>
<g>
</g>
<g>
</g>
<g>
</g>
<g>
</g>
<g>
</g>
</svg>
